<!--
Add to HTML Code
<svg>
    <use xlink:href="./img/sprites.svg#icon-calendar"></use>
</svg>
-->
<svg>
    <symbol id="icon-phone" width="20px" height="20px" viewBox="0 0 20 20" fill="none" xmlns="http://www.w3.org/2000/svg">
        <path stroke="currentColor" d="M16.9995 13.2304V15.4885C17.0004 15.6981 16.9574 15.9056 16.8732 16.0977C16.7891 16.2898 16.6657 16.4622 16.5109 16.6039C16.3561 16.7456 16.1734 16.8535 15.9744 16.9207C15.7754 16.9878 15.5646 17.0128 15.3554 16.9939C13.0346 16.7422 10.8053 15.9508 8.84668 14.6831C7.02441 13.5274 5.47945 11.9855 4.3215 10.1669C3.0469 8.20324 2.25368 5.96756 2.00612 3.64096C1.98727 3.43282 2.01206 3.22303 2.0789 3.02497C2.14574 2.82691 2.25317 2.6449 2.39436 2.49055C2.53554 2.33619 2.70738 2.21287 2.89893 2.12843C3.09049 2.04398 3.29756 2.00027 3.50697 2.00007H5.76956C6.13558 1.99648 6.49041 2.12583 6.76793 2.36403C7.04546 2.60222 7.22672 2.93301 7.27795 3.29472C7.37345 4.01736 7.55055 4.72691 7.80589 5.40981C7.90736 5.67922 7.92932 5.97202 7.86917 6.2535C7.80902 6.53498 7.66928 6.79336 7.4665 6.99801L6.50867 7.95394C7.58231 9.83837 9.14568 11.3986 11.0338 12.4702L11.9917 11.5142C12.1967 11.3118 12.4556 11.1724 12.7377 11.1123C13.0197 11.0523 13.3131 11.0742 13.583 11.1755C14.2673 11.4303 14.9782 11.6071 15.7023 11.7024C16.0687 11.754 16.4033 11.9381 16.6424 12.2199C16.8816 12.5016 17.0087 12.8612 16.9995 13.2304Z" stroke-linecap="round" stroke-linejoin="round"/>
    </symbol>
    <symbol id="arrow" width="14px" height="9px" viewBox="0 0 14 9" fill="currentColor" xmlns="http://www.w3.org/2000/svg">
        <path stroke="currentColor" d="M13.9375 0.929688C13.891 0.809375 13.8171 0.719141 13.5628 0.462109C13.1718 0.0683594 13.0789 0.0164063 12.7808 0.0136719C12.6222 0.0136719 12.532 0.0273438 12.4527 0.065625C12.3789 0.101172 11.482 0.976172 9.6691 2.78633L6.99761 5.45508L4.32339 2.78359C2.24527 0.705469 1.62456 0.0984377 1.52886 0.057422C1.44683 0.0191408 1.34566 1.5082e-07 1.22808 1.52222e-07C0.94644 1.55581e-07 0.809721 0.079297 0.432378 0.459375C0.167143 0.727344 0.106987 0.806641 0.0577683 0.937891C-0.0187941 1.1375 -0.0187941 1.29609 0.055034 1.4957C0.109721 1.64883 0.249175 1.79102 3.31714 4.85899C6.86089 8.40547 6.63667 8.20313 6.99761 8.20313C7.35855 8.20313 7.13433 8.40547 10.6781 4.85898C13.7488 1.78828 13.8855 1.64883 13.9402 1.4957C14.0113 1.29883 14.0113 1.12383 13.9375 0.929688Z"/>
    </symbol>
    <symbol id="icon-cart" width="24px" height="20px" viewBox="0 0 24 20" fill="currentColor" xmlns="http://www.w3.org/2000/svg">
        <path fill="currentColor" d="M10.1514 0.897217C12.3677 0.897367 14.1955 2.55498 14.4658 4.698H17.3018V18.9998H3V4.698H5.83691C6.1073 2.55492 7.93493 0.897221 10.1514 0.897217ZM4 17.9998H16.3018V5.698H4V17.9998ZM10.1514 1.89722C8.48816 1.89722 7.10802 3.10912 6.8457 4.698H13.4561C13.1937 3.10924 11.8144 1.89736 10.1514 1.89722Z"/>
    </symbol>
    <symbol id="icon-user" width="20px" height="20px" viewBox="0 0 20 20" fill="currentColor" xmlns="http://www.w3.org/2000/svg">
        <path fill="currentColor" d="M11.167 12.917C14.6645 12.9172 17.4998 15.7525 17.5 19.25H16.5C16.4998 16.3047 14.1123 13.9172 11.167 13.917H8.83301C5.88775 13.9172 3.50018 16.3047 3.5 19.25H2.5C2.50018 15.7525 5.33546 12.9172 8.83301 12.917H11.167ZM10.2402 1.75586C12.7058 1.88105 14.666 3.92034 14.666 6.41699L14.6602 6.65723C14.535 9.12264 12.4965 11.0828 10 11.083L9.75977 11.0771C7.37378 10.9561 5.46002 9.04318 5.33887 6.65723L5.33301 6.41699C5.33301 3.83979 7.42284 1.7502 10 1.75L10.2402 1.75586ZM10 2.75C7.97512 2.7502 6.33301 4.39207 6.33301 6.41699C6.33318 8.44176 7.97523 10.0828 10 10.083C12.0248 10.0828 13.6658 8.44178 13.666 6.41699C13.666 4.39206 12.0249 2.75018 10 2.75Z"/>
    </symbol>
    <symbol id="icon-whatsapp" width="40px" height="41px" viewBox="0 0 40 41" fill="none" xmlns="http://www.w3.org/2000/svg">
        <path fill="currentColor" d="M17.4873 0.101284C15.12 0.346855 12.9 1.00498 10.7095 2.10513C7.635 3.64731 5.307 5.70027 3.38174 8.57834C-0.792945 14.7765 -0.9894 22.9098 2.85131 29.5696L3.28351 30.3162L1.61364 34.815C0.356321 38.2235 -0.0365904 39.3924 0.00270071 39.5987C0.081283 39.9425 0.582245 40.3649 0.906397 40.3649C1.04392 40.3649 3.08705 39.5496 5.44452 38.5477L9.72725 36.7304L11.2498 37.4966C15.7093 39.7559 20.6895 40.3158 25.4634 39.0977C32.2509 37.3591 37.6436 31.8976 39.3037 25.0904C40.0109 22.1534 40.0109 18.5878 39.3037 15.6606C37.8302 9.64903 33.7538 4.65905 28.0959 1.94797C24.8543 0.395969 21.0136 -0.27198 17.4873 0.101284ZM21.269 2.06584C29.3826 2.89095 35.9639 8.91232 37.5945 16.9965C37.7909 17.9689 37.8204 18.4011 37.8204 20.3755C37.8204 22.1534 37.7811 22.8214 37.6436 23.5188C36.7596 27.9292 34.5494 31.5637 31.1606 34.1863C25.4142 38.6361 17.3988 39.0191 11.014 35.1686C10.5131 34.8641 10.0711 34.6677 9.90407 34.6677C9.73708 34.6677 8.0672 35.3258 6.18123 36.1214C4.29526 36.9269 2.74326 37.5752 2.72361 37.5654C2.71379 37.5556 3.29333 35.925 4.03004 33.9506C4.75693 31.9762 5.35612 30.2474 5.35612 30.1295C5.35612 30.0018 5.14984 29.5696 4.89445 29.1669C1.1225 23.1259 1.14214 15.5231 4.93374 9.7669C8.49941 4.35455 14.7762 1.39789 21.269 2.06584Z"/>
        <path fill="currentColor" d="M12.8706 8.11672C11.7311 8.57839 10.2774 9.82588 9.53084 10.9948C8.70573 12.2619 8.46998 13.421 8.68608 15.0418C9.2558 19.3147 12.0848 23.8921 16.2103 27.2319C19.4224 29.8349 22.9979 31.328 26.0233 31.3574C26.8484 31.3574 27.1333 31.3181 27.7226 31.1119C29.3925 30.5225 31.1803 28.833 31.8482 27.2024C32.2313 26.279 32.1036 25.2673 31.5339 24.7074C31.3669 24.5404 30.7481 24.1082 30.1587 23.7546C29.5595 23.401 28.5969 22.8116 28.0075 22.458C26.3376 21.4364 25.6304 21.3087 24.7169 21.8686C24.3141 22.124 23.99 22.4678 22.9193 23.7644L22.5559 24.2064L22.1826 24.0689C21.2691 23.7448 19.442 22.3499 18.2142 21.0337C16.9765 19.7076 15.8665 18.077 15.8665 17.5761C15.8665 17.468 16.171 17.1439 16.5836 16.8001C17.5364 16.0241 18.2829 15.2088 18.4205 14.7667C18.666 14.03 18.3615 13.254 16.8685 10.8475C15.395 8.48016 15.3558 8.42123 14.8941 8.17566C14.3735 7.90062 13.4698 7.87115 12.8706 8.11672ZM14.3735 10.5528C14.5601 10.8769 15.0316 11.6529 15.4245 12.2718C15.8174 12.8906 16.23 13.588 16.338 13.8139L16.5541 14.2265L15.896 14.7962C13.9216 16.5054 13.6957 16.8393 13.902 17.802C14.1672 19.0888 15.2673 20.7881 16.9372 22.5169C19.1081 24.7565 21.2396 26.1219 22.6148 26.1317C23.322 26.1415 23.6855 25.896 24.6579 24.727C25.817 23.342 25.6991 23.4108 26.4162 23.7939C26.7404 23.9805 27.6342 24.5109 28.3906 24.9726C29.1469 25.4441 29.8444 25.8763 29.9524 25.9352C30.2176 26.0924 30.0997 26.5148 29.5693 27.2515C28.7344 28.4302 27.4574 29.3045 26.426 29.4223C25.7483 29.5009 24.1471 29.2357 23.0372 28.8723C17.173 26.9273 11.682 20.8372 10.6998 15.2186C10.3952 13.4505 10.6506 12.5173 11.7803 11.3091C12.4973 10.5429 13.4501 9.89464 13.7939 9.93393C13.9806 9.95358 14.1279 10.1107 14.3735 10.5528Z"/>
    </symbol>
    <symbol id="icon-instagram" width="42px" height="41px" viewBox="0 0 42 41" fill="none" xmlns="http://www.w3.org/2000/svg">
        <path fill="currentColor" d="M9.99138 0.0880394C8.62146 0.248196 7.00544 0.768703 5.77498 1.44937C2.59216 3.23511 0.492163 6.34214 0.09021 9.87358C-0.0328369 10.9386 -0.0328369 30.0613 0.09021 31.1263C0.672632 36.2753 4.83982 40.3433 10.1144 40.9119C11.2054 41.032 30.7945 41.032 31.8855 40.9119C37.1601 40.3433 41.3273 36.2753 41.9097 31.1263C42.0328 30.0613 42.0328 10.9386 41.9097 9.87358C41.3273 4.72456 37.1601 0.656593 31.8855 0.0880394C30.9176 -0.0160637 10.9347 -0.0160637 9.99138 0.0880394ZM32.7386 2.65855C34.4449 3.11499 35.7574 3.8437 36.9058 4.97281C38.0625 6.0939 38.809 7.37515 39.2847 9.04077L39.498 9.80952V20.5V31.1904L39.2847 31.9591C38.809 33.6248 38.0625 34.906 36.9058 36.0271C35.7574 37.1562 34.4449 37.8849 32.7386 38.3494L31.9511 38.5576H21H10.0488L9.2613 38.3494C7.55505 37.8849 6.24255 37.1562 5.09412 36.0271C3.93748 34.906 3.19099 33.6248 2.71521 31.9591L2.50193 31.1904V20.5V9.80952L2.71521 9.04077C3.19099 7.37515 3.93748 6.0939 5.08591 4.97281C6.44763 3.64351 8.24412 2.76265 10.1308 2.49038C10.4015 2.45034 15.4219 2.42632 21.2871 2.43433L31.9511 2.44233L32.7386 2.65855Z"/>
        <path fill="currentColor" d="M32.3613 5.34118C30.3597 5.61345 28.998 7.5113 29.482 9.35309C29.8183 10.6584 30.6715 11.4832 32.0004 11.8195C34.2562 12.38 36.4711 10.3861 36.0937 8.13591C35.8886 6.87868 34.9453 5.82165 33.7148 5.4613C33.3539 5.3572 32.6894 5.30114 32.3613 5.34118ZM33.2801 7.89567C33.723 8.16794 33.7968 8.83259 33.4277 9.20895C33.1242 9.51325 32.7551 9.58532 32.3777 9.40915C31.8035 9.14489 31.6804 8.40817 32.1398 7.99177C32.4761 7.67946 32.8699 7.64743 33.2801 7.89567Z"/>
        <path fill="currentColor" d="M19.4168 9.40911C14.8805 10.0177 11.0496 13.349 9.89297 17.7132C8.87578 21.5329 10.016 25.5689 12.9117 28.3956C17.4234 32.7999 24.5766 32.7999 29.0883 28.3956C33.6 23.9913 33.6 17.0085 29.0883 12.6042C26.4961 10.0818 23.0262 8.92864 19.4168 9.40911ZM22.3125 11.8115C24.2812 12.0997 25.9547 12.9245 27.3574 14.2939C30.893 17.7372 30.893 23.2626 27.3574 26.706C23.8301 30.1573 18.1699 30.1573 14.6426 26.706C11.107 23.2626 11.107 17.7372 14.6426 14.2939C16.6852 12.2999 19.4906 11.387 22.3125 11.8115Z"/>
    </symbol>
    <symbol id="icon-viber" width="42" height="42" viewBox="0 0 42 42" fill="none" xmlns="http://www.w3.org/2000/svg">
        <path fill="currentColor" d="M14.3555 0.0902672C10.0734 0.590656 6.33282 2.91214 3.93751 6.56253C2.71524 8.43285 1.96056 10.5903 1.72266 12.92C1.57501 14.2981 1.66524 22.8785 1.82931 23.7481C2.43634 26.9801 3.78165 29.4903 6.12774 31.7543C7.04649 32.6403 8.33438 33.5754 9.35977 34.084L9.91759 34.3711L9.9422 37.1766C9.98321 40.2938 10.016 40.5235 10.5246 41.1961C11.3367 42.2625 12.7723 42.2215 13.9043 41.1141C14.134 40.8926 15.2742 39.5801 16.4391 38.202L18.5637 35.6918L23.2887 35.659L28.0137 35.6344L28.957 35.4211C31.7789 34.7731 33.9691 33.6 36.0035 31.6313C38.2184 29.4821 39.5801 26.8981 40.1707 23.7481C40.2691 23.2313 40.302 22.1157 40.3348 18.4571C40.3758 13.5844 40.3348 12.7149 40.0231 11.2465C38.9156 6.13597 34.9043 1.89495 29.8676 0.525032C28.1449 0.0492516 28.2762 0.0574532 21.3691 0.04105C17.85 0.0246429 14.6918 0.0492516 14.3555 0.0902672ZM28.391 2.68245C32.6566 3.61761 36.0117 6.61175 37.3078 10.6641C37.8574 12.3703 37.8574 12.4114 37.8574 17.8008C37.8574 22.2305 37.841 22.7555 37.7016 23.502C37.0863 26.775 35.1586 29.6379 32.3531 31.4344C31.3524 32.0743 29.9168 32.6649 28.5551 32.993C27.8906 33.1571 27.5543 33.1735 22.7637 33.2145C18.1699 33.2555 17.6531 33.2801 17.4234 33.4032C17.2758 33.4852 16.0945 34.8059 14.7984 36.3399L12.4277 39.1289L12.3867 36.1184C12.3457 33.3539 12.3293 33.0832 12.1899 32.8782C12.0914 32.7305 11.7141 32.4926 11.0988 32.1973C9.9504 31.6477 9.18751 31.1637 8.30157 30.4172C6.33282 28.7602 4.92188 26.3813 4.33126 23.6825C4.15079 22.8621 4.14259 22.7309 4.14259 17.8828C4.14259 13.4039 4.15899 12.8461 4.29024 12.1817C4.97931 8.81839 6.76759 6.16878 9.60587 4.31488C11.0824 3.35511 12.7559 2.77269 14.8066 2.51019C14.9461 2.49378 17.8746 2.48558 21.3281 2.50199C27.3492 2.51019 27.6363 2.51839 28.391 2.68245Z"/>
        <path fill="currentColor" d="M19.8926 5.0696C19.0969 5.56999 19.1297 6.75945 19.95 7.18601C20.1059 7.26804 20.5816 7.34187 21.1969 7.38288C24.2484 7.60437 26.7094 8.81023 28.7438 11.0743C30.3926 12.9118 31.5 15.6844 31.5 18.0059C31.5 18.6868 31.6641 19.0559 32.0824 19.343C32.468 19.6055 33.1981 19.5727 33.518 19.2692C33.9363 18.8755 33.9856 18.6786 33.9363 17.5958C33.6164 10.8282 27.9481 5.15984 21.2871 4.94656C20.2535 4.91374 20.1141 4.93015 19.8926 5.0696Z"/>
        <path fill="currentColor" d="M11.9273 9.3434C10.2867 9.81097 8.86758 11.509 8.26875 13.6993C8.10469 14.2981 8.08008 14.5934 8.08008 15.791C8.08008 17.3825 8.17852 17.9895 8.69531 19.5481C10.0406 23.5758 13.4695 27.4149 17.5137 29.4082C21.2297 31.2375 24.8883 31.295 27.4477 29.5477C28.0793 29.1211 28.9816 28.1614 29.2523 27.6364C29.8676 26.4141 29.7855 24.8637 29.0391 23.7071C28.6453 23.0918 26.9391 21.4758 26.4141 21.2215C24.7734 20.4258 22.9852 20.7457 21.6973 22.0664C21.1969 22.5832 20.9016 22.7473 20.598 22.6817C20.4504 22.6489 19.6793 21.9352 18.2684 20.5243C15.7664 18.0141 15.8648 18.2192 16.7344 17.2512C17.7926 16.0864 18.0961 15.3317 18.0305 14.0192C17.9977 13.3137 17.9566 13.1496 17.6859 12.5836C17.4234 12.0258 17.2348 11.7961 16.3406 10.902C15.6516 10.2129 15.1512 9.78636 14.8723 9.64691C13.9371 9.17933 12.8789 9.07269 11.9273 9.3434ZM13.5844 11.7715C13.9453 11.9192 15.0363 12.9528 15.348 13.445C15.5285 13.7157 15.5859 13.9125 15.5859 14.1996C15.5859 14.7739 15.4711 14.9871 14.8395 15.6352C14.4621 16.0289 14.1832 16.4145 14.0027 16.7836C13.7648 17.3004 13.7402 17.4235 13.7402 18.1289C13.7402 18.8426 13.7648 18.9575 14.0109 19.4825C14.257 19.9993 14.4949 20.27 16.5539 22.3207C18.9902 24.7489 19.2035 24.9129 20.2043 25.1098C20.7785 25.2246 21.5168 25.1262 22.0992 24.8473C22.3125 24.7489 22.8047 24.3797 23.182 24.027C23.9941 23.2723 24.3059 23.1493 24.9621 23.3051C25.3148 23.3871 25.4871 23.5102 26.1023 24.1008C27.1523 25.1098 27.3492 25.52 27.1523 26.2582C26.9637 26.9883 25.7824 27.8578 24.5273 28.1942C23.8301 28.3828 22.1812 28.3746 21.3445 28.186C17.3906 27.3 13.5105 24.1172 11.6402 20.2207C10.3605 17.5629 10.1473 15.1594 11.025 13.3465C11.3367 12.6985 11.993 11.952 12.4113 11.7715C12.7559 11.6157 13.2234 11.6157 13.5844 11.7715Z"/>
        <path fill="currentColor" d="M20.0566 9.87654C19.6219 10.0734 19.2773 10.5738 19.2773 11.0086C19.2773 11.107 19.3512 11.3367 19.4414 11.5254C19.6793 12.0094 20.0484 12.1898 20.9508 12.2554C22.4766 12.3621 23.8875 13.0429 24.9621 14.1832C25.9711 15.266 26.4879 16.4636 26.6191 18.0551C26.6766 18.8179 26.8078 19.1051 27.2016 19.3676C27.5133 19.5726 28.1777 19.5726 28.4895 19.3676C29.0145 19.023 29.1293 18.6375 29.0309 17.5793C28.9242 16.439 28.6863 15.5941 28.1777 14.5605C26.9062 11.9519 24.5602 10.2703 21.6152 9.84373C20.8441 9.73709 20.352 9.74529 20.0566 9.87654Z"/>
        <path fill="currentColor" d="M19.9418 14.8149C19.6301 14.9789 19.384 15.3317 19.3102 15.7254C19.1871 16.357 19.7121 17.0133 20.4012 17.1035C21.2297 17.202 21.6071 17.5547 21.7383 18.3258C21.7793 18.5883 21.8778 18.8918 21.9434 19.0067C22.2879 19.5234 23.1082 19.6875 23.6332 19.3348C24.1747 18.9738 24.3141 18.3668 24.0762 17.4317C23.7973 16.3817 23.0262 15.4711 22.0172 14.9953C21.32 14.6672 20.3848 14.5934 19.9418 14.8149Z"/>
    </symbol>
    <symbol id="icon-telegram" width="42" height="41" viewBox="0 0 42 41" fill="none" xmlns="http://www.w3.org/2000/svg">
        <path fill="currentColor" d="M37.5293 3.19516C36.7172 3.45941 28.4895 6.11 19.2363 9.08891C9.99141 12.0598 2.15743 14.5823 1.8293 14.7024C1.09102 14.9586 0.582429 15.3911 0.27071 15.9996C-0.0410085 16.6162 -0.0492117 17.5452 0.237898 18.0977C0.475788 18.5541 0.935163 19.0266 1.32891 19.2268C1.49298 19.3069 3.6504 20.2438 6.11954 21.3008C8.58868 22.3579 10.6149 23.2307 10.6313 23.2467C10.6477 23.2627 11.2875 26.1135 12.0504 29.5809C12.8215 33.0483 13.5106 36.0192 13.5926 36.1793C13.9043 36.8039 14.6508 37.0121 15.2988 36.6518C15.4793 36.5477 17.1856 35.3225 19.0887 33.9291L22.5504 31.3987L26.5535 34.5938C28.752 36.3555 30.7371 37.885 30.9586 38.0051C31.4836 38.2854 32.2055 38.3495 32.8535 38.1573C33.518 37.9731 34.2727 37.2444 34.4777 36.5957C34.5516 36.3555 36.2824 29.2366 38.3168 20.7803C42.3773 3.90785 42.1641 4.94886 41.7293 4.11605C41.2863 3.27523 40.5481 2.80277 39.5801 2.74672C39.0551 2.72269 38.8828 2.75473 37.5293 3.19516ZM39.4981 5.34125C39.4652 5.46937 37.8 12.3721 35.7984 20.6922C33.7969 29.0123 32.1399 35.843 32.1152 35.859C32.0906 35.883 32.0086 35.843 31.9348 35.7789C31.8527 35.7149 29.0227 33.4487 25.6348 30.75C22.2551 28.0514 19.4496 25.8172 19.4168 25.7852C19.384 25.7532 22.2387 22.7823 25.7742 19.1787C29.3098 15.5752 32.2793 12.5002 32.3777 12.3401C32.5008 12.1479 32.5664 11.9237 32.5664 11.6834C32.5664 11.3631 32.5172 11.259 32.2547 10.9707C31.9594 10.6424 31.9102 10.6184 31.4508 10.5944L30.9668 10.5623L21.3117 15.7995L11.6649 21.0366L7.05469 19.0746C4.52813 17.9936 2.48555 17.0807 2.52657 17.0407C2.59219 16.9766 39.2602 5.14105 39.4488 5.13305C39.5309 5.12504 39.5391 5.18109 39.4981 5.34125ZM24.6914 16.7684C24.6914 16.7844 22.8621 18.6743 20.6227 20.9565C18.3832 23.2387 16.4965 25.2086 16.4391 25.3448C16.3816 25.4729 16.0043 26.6821 15.6188 28.0274C15.225 29.3727 14.8805 30.4938 14.8477 30.5338C14.7984 30.5899 13.1906 23.4629 13.1742 23.1186C13.166 23.0145 14.5606 22.2217 18.9082 19.8594C22.0664 18.1457 24.6586 16.7364 24.675 16.7364C24.6832 16.7364 24.6914 16.7524 24.6914 16.7684ZM19.507 28.9723C20.0649 29.4127 20.516 29.7971 20.516 29.8291C20.516 29.9092 16.9395 32.5118 16.9149 32.4477C16.9066 32.4157 17.1199 31.6309 17.3906 30.71C18.2766 27.7151 18.2027 27.9153 18.3586 28.0514C18.4324 28.1155 18.9492 28.5239 19.507 28.9723Z"/>
    </symbol>



</svg>
