<!--
Add to HTML Code
<svg>
    <use xlink:href="./img/sprites.svg#icon-calendar"></use>
</svg>
-->
<svg>
    <symbol id="icon-phone" viewBox="0 0 20 20" fill="none" xmlns="http://www.w3.org/2000/svg">
        <path stroke="currentColor" d="M16.9995 13.2304V15.4885C17.0004 15.6981 16.9574 15.9056 16.8732 16.0977C16.7891 16.2898 16.6657 16.4622 16.5109 16.6039C16.3561 16.7456 16.1734 16.8535 15.9744 16.9207C15.7754 16.9878 15.5646 17.0128 15.3554 16.9939C13.0346 16.7422 10.8053 15.9508 8.84668 14.6831C7.02441 13.5274 5.47945 11.9855 4.3215 10.1669C3.0469 8.20324 2.25368 5.96756 2.00612 3.64096C1.98727 3.43282 2.01206 3.22303 2.0789 3.02497C2.14574 2.82691 2.25317 2.6449 2.39436 2.49055C2.53554 2.33619 2.70738 2.21287 2.89893 2.12843C3.09049 2.04398 3.29756 2.00027 3.50697 2.00007H5.76956C6.13558 1.99648 6.49041 2.12583 6.76793 2.36403C7.04546 2.60222 7.22672 2.93301 7.27795 3.29472C7.37345 4.01736 7.55055 4.72691 7.80589 5.40981C7.90736 5.67922 7.92932 5.97202 7.86917 6.2535C7.80902 6.53498 7.66928 6.79336 7.4665 6.99801L6.50867 7.95394C7.58231 9.83837 9.14568 11.3986 11.0338 12.4702L11.9917 11.5142C12.1967 11.3118 12.4556 11.1724 12.7377 11.1123C13.0197 11.0523 13.3131 11.0742 13.583 11.1755C14.2673 11.4303 14.9782 11.6071 15.7023 11.7024C16.0687 11.754 16.4033 11.9381 16.6424 12.2199C16.8816 12.5016 17.0087 12.8612 16.9995 13.2304Z" stroke-linecap="round" stroke-linejoin="round"/>
    </symbol>
    <symbol id="arrow" viewBox="0 0 14 9" fill="currentColor" xmlns="http://www.w3.org/2000/svg">
        <path stroke="currentColor" d="M13.9375 0.929688C13.891 0.809375 13.8171 0.719141 13.5628 0.462109C13.1718 0.0683594 13.0789 0.0164063 12.7808 0.0136719C12.6222 0.0136719 12.532 0.0273438 12.4527 0.065625C12.3789 0.101172 11.482 0.976172 9.6691 2.78633L6.99761 5.45508L4.32339 2.78359C2.24527 0.705469 1.62456 0.0984377 1.52886 0.057422C1.44683 0.0191408 1.34566 1.5082e-07 1.22808 1.52222e-07C0.94644 1.55581e-07 0.809721 0.079297 0.432378 0.459375C0.167143 0.727344 0.106987 0.806641 0.0577683 0.937891C-0.0187941 1.1375 -0.0187941 1.29609 0.055034 1.4957C0.109721 1.64883 0.249175 1.79102 3.31714 4.85899C6.86089 8.40547 6.63667 8.20313 6.99761 8.20313C7.35855 8.20313 7.13433 8.40547 10.6781 4.85898C13.7488 1.78828 13.8855 1.64883 13.9402 1.4957C14.0113 1.29883 14.0113 1.12383 13.9375 0.929688Z"/>
    </symbol>
    <symbol id="icon-cart" viewBox="0 0 24 20" fill="none" xmlns="http://www.w3.org/2000/svg">
        <path fill="currentColor" d="M10.1514 0.897217C12.3677 0.897367 14.1955 2.55498 14.4658 4.698H17.3018V18.9998H3V4.698H5.83691C6.1073 2.55492 7.93493 0.897221 10.1514 0.897217ZM4 17.9998H16.3018V5.698H4V17.9998ZM10.1514 1.89722C8.48816 1.89722 7.10802 3.10912 6.8457 4.698H13.4561C13.1937 3.10924 11.8144 1.89736 10.1514 1.89722Z"/>
    </symbol>
    <symbol id="icon-user" viewBox="0 0 20 20" fill="none" xmlns="http://www.w3.org/2000/svg">
        <path fill="currentColor" d="M11.167 12.917C14.6645 12.9172 17.4998 15.7525 17.5 19.25H16.5C16.4998 16.3047 14.1123 13.9172 11.167 13.917H8.83301C5.88775 13.9172 3.50018 16.3047 3.5 19.25H2.5C2.50018 15.7525 5.33546 12.9172 8.83301 12.917H11.167ZM10.2402 1.75586C12.7058 1.88105 14.666 3.92034 14.666 6.41699L14.6602 6.65723C14.535 9.12264 12.4965 11.0828 10 11.083L9.75977 11.0771C7.37378 10.9561 5.46002 9.04318 5.33887 6.65723L5.33301 6.41699C5.33301 3.83979 7.42284 1.7502 10 1.75L10.2402 1.75586ZM10 2.75C7.97512 2.7502 6.33301 4.39207 6.33301 6.41699C6.33318 8.44176 7.97523 10.0828 10 10.083C12.0248 10.0828 13.6658 8.44178 13.666 6.41699C13.666 4.39206 12.0249 2.75018 10 2.75Z"/>
    </symbol>

</svg>
